<?xml version="1.0" encoding="UTF-8"?>
<svg id="Layer_1" xmlns="http://www.w3.org/2000/svg" version="1.1" viewBox="0 0 1080 1080">
  <!-- Generator: Adobe Illustrator 29.0.1, SVG Export Plug-In . SVG Version: 2.1.0 Build 192)  -->
  <defs>
    <style>
      .st0 {
        fill: #fff;
      }

      .st1 {
        fill: none;
        stroke: #fff;
        stroke-linecap: round;
        stroke-miterlimit: 10;
        stroke-width: 29px;
      }

      .st2 {
        display: none;
      }

      .st3 {
        fill: #292929;
      }
    </style>
  </defs>
  <g class="st2">
    <rect class="st3" x=".5" y=".5" width="1079" height="1079"/>
    <path d="M1079,1v1078H1V1h1078M1080,0H0v1080h1080V0h0Z"/>
  </g>
  <g>
    <path class="st0" d="M442,276c44.07,0,85.51,17.16,116.67,48.33,31.16,31.16,48.33,72.6,48.33,116.67s-17.16,85.51-48.33,116.67-72.6,48.33-116.67,48.33-85.51-17.16-116.67-48.33c-31.16-31.16-48.33-72.6-48.33-116.67s17.16-85.51,48.33-116.67c31.16-31.16,72.6-48.33,116.67-48.33M442,247c-49.65,0-99.3,18.94-137.18,56.82-75.76,75.76-75.76,198.6,0,274.36,37.88,37.88,87.53,56.82,137.18,56.82s99.3-18.94,137.18-56.82c75.76-75.76,75.76-198.6,0-274.36-37.88-37.88-87.53-56.82-137.18-56.82h0Z"/>
    <line class="st1" x1="833.74" y1="833.44" x2="578.47" y2="578.18"/>
  </g>
</svg>